Coordinates
version=1
nRows=19
nColumns=36
inDegrees=yes

Units are S.I. units (second, meters, Newtons, ...)
If the header above contains a line with 'inDegrees', this indicates whether rotational values are in degrees (yes) or radians (no).

endheader
time	pelvis_tilt	pelvis_list	pelvis_rotation	pelvis_tx	pelvis_ty	pelvis_tz	hip_flexion_r	hip_adduction_r	hip_rotation_r	knee_angle_r	knee_angle_r_beta	ankle_angle_r	subtalar_angle_r	mtp_angle_r	hip_flexion_l	hip_adduction_l	hip_rotation_l	knee_angle_l	knee_angle_l_beta	ankle_angle_l	subtalar_angle_l	mtp_angle_l	lumbar_extension	lumbar_bending	lumbar_rotation	arm_flex_r	arm_add_r	arm_rot_r	elbow_flex_r	pro_sup_r	arm_flex_l	arm_add_l	arm_rot_l	elbow_flex_l	pro_sup_l
      5.90000000	    -10.63706218	      2.04837841	     -9.53874987	      0.84104864	      1.01340569	      0.10990971	     25.20311350	     -1.81822612	      1.21688920	     23.90268493	      0.41718055	      6.04467824	     -9.81401478	     -7.49999987	     12.40688726	      4.22937556	     -0.91240704	      5.26075769	      0.09181754	      6.74918455	     -2.40694316	     -7.49999987	     -3.54274337	     -0.58884380	     -3.44950861	     39.77473199	      6.31215786	     69.18589148	    123.76864168	    105.20407751	     56.50428256	     -0.24699835	     66.41454073	    125.45369641	    106.38248759
      5.91666670	    -10.77089788	      2.33662346	     -9.54092042	      0.83541868	      1.01510838	      0.11217887	     25.10279630	     -2.03362395	      1.08935859	     23.45605488	      0.40938539	      6.23478981	     -9.81492022	     -7.49999987	     12.86631017	      4.39945709	     -1.06781011	      5.68902111	      0.09929215	      7.18371489	     -2.43526643	     -7.49999987	     -3.43613238	     -0.91121385	     -3.26433582	     40.07953793	      6.37543259	     69.16303230	    123.81072771	    105.21533098	     56.59352775	     -0.29740284	     66.51540129	    125.58746724	    106.39038534
      5.93333330	    -10.75780356	      2.57846398	     -9.42186659	      0.84604921	      1.01363821	      0.11359436	     24.71730320	     -2.29991724	      0.77479106	     23.08186974	      0.40285462	      6.55512201	    -10.01103468	     -7.49999987	     12.95911840	      4.59271165	     -1.31750766	      5.93146901	      0.10352366	      7.45171184	     -2.51051250	     -7.49999987	     -3.17516313	     -1.11219691	     -3.04595059	     39.98621622	      6.45624617	     69.31469940	    123.91652724	    105.22986812	     56.21249628	     -0.23810195	     66.75817728	    125.66690819	    106.40527559
      5.95000000	    -11.08495757	      2.63775923	     -9.20022408	      0.84652679	      1.01053533	      0.11395287	     24.45518394	     -2.37424892	      0.38088792	     22.46628203	      0.39211059	      6.89816337	     -9.73429091	     -7.49999987	     13.39834852	      4.52854659	     -1.60495788	      6.33295605	      0.11053093	      8.35955736	     -1.54671325	     -7.49999987	     -2.47547517	     -1.19427492	     -2.71988945	     39.56502216	      6.19524208	     69.53183139	    124.47901266	    103.92540112	     55.55041836	      0.10968567	     67.07526252	    125.48586395	    105.00009381
      5.96666670	    -11.07033134	      2.81164368	     -9.09154510	      0.84572592	      1.00836322	      0.11357637	     23.95866167	     -2.59792358	      0.09270213	     22.01648208	      0.38426010	      7.34048598	     -9.69022366	     -7.49999987	     13.46543225	      4.64110405	     -2.03338799	      6.58756440	      0.11497469	      8.99842676	     -0.83465992	     -7.49999987	     -2.10806131	     -1.39889036	     -2.60390202	     39.37801050	      6.12416709	     69.15629566	    124.44036401	    105.22822880	     55.29097693	      0.19898090	     66.44987867	    124.72684116	    106.03990127
      5.98333330	    -10.88896035	      2.83097730	     -8.85439539	      0.84477442	      1.01122894	      0.11915497	     23.16100173	     -2.68237489	     -0.11986049	     21.42247958	      0.37389280	      7.54250019	     -9.83216022	     -7.49999987	     13.17866351	      4.64227133	     -2.07837464	      6.53477621	      0.11405336	      9.34171884	     -0.59240687	     -7.49999987	     -1.98810576	     -1.57365306	     -2.53427359	     38.74431382	      6.11853646	     68.78589896	    123.88668138	    105.34288306	     54.28053452	     -0.44738087	     65.73666766	    123.87498203	    106.10036891
      6.00000000	    -10.80400769	      2.87051303	     -8.66063854	      0.84397374	      1.00946490	      0.11831610	     22.52069573	     -2.80368969	     -0.38786905	     20.94028467	      0.36547691	      7.65727092	     -9.99268042	     -7.49999987	     13.11879392	      4.65711010	     -2.14328909	      6.66902091	      0.11639637	      9.60870038	     -0.38431638	     -7.49999987	     -1.95770276	     -1.55153887	     -2.35943016	     38.65848814	      5.16529509	     68.03201656	    122.97537706	    105.41369532	     53.32655994	     -0.85533259	     65.04929472	    122.41963861	    106.15166227
      6.01666670	    -10.53887813	      2.81901059	     -8.55045565	      0.84941332	      1.01263422	      0.12237149	     21.54668180	     -2.83676726	     -0.64203441	     20.27401737	      0.35384836	      7.74506662	    -10.33134414	     -7.49999987	     12.66413065	      4.58942551	     -2.06832911	      6.52900111	      0.11395257	      9.73345648	     -0.21723756	     -7.49999987	     -2.06443829	     -1.45571891	     -1.99481713	     37.87832794	      4.34607109	     66.74661110	    121.65302433	    105.35282964	     51.81963147	     -1.03939272	     64.08677363	    120.51320246	    106.17355481
      6.03333330	    -10.12849512	      2.67558376	     -8.43920310	      0.85912237	      1.01453116	      0.12943546	     20.10841712	     -2.72539779	     -0.81557118	     19.26055735	      0.33616014	      7.82658203	    -10.63236480	     -7.49999987	     11.83192368	      4.41938399	     -1.85112645	      6.12958008	      0.10698135	      9.61844965	     -0.04831134	     -7.49999987	     -2.15156706	     -1.36260105	     -1.61979300	     35.97460380	      3.54399904	     65.54206790	    120.43961306	    105.22585115	     49.61755595	     -1.28367171	     63.70108598	    119.26575186	    106.21927863
      6.05000000	     -9.48005542	      2.53934099	     -8.18384795	      0.85855722	      1.01751672	      0.12922812	     18.56417764	     -2.71485516	     -0.88789729	     18.51833270	      0.32320588	      7.91967365	    -10.91024916	     -7.49999987	     10.81079096	      4.31770085	     -1.55482223	      5.82040633	      0.10158525	      9.48622793	      0.10178946	     -7.49999987	     -2.67077784	     -1.39282684	     -1.55093473	     34.03840191	      2.33811126	     64.19065206	    119.09684271	    105.07920644	     47.30580724	     -1.90069326	     63.21038828	    117.45736253	    106.35474584
      6.06666670	     -8.94809160	      2.46530637	     -7.89597133	      0.85718431	      1.01848137	      0.12847061	     17.26714136	     -2.79357432	     -0.90576760	     17.78570984	      0.31041920	      8.04362098	    -11.21700193	     -7.49999987	      9.89707901	      4.29097248	     -1.13882437	      5.44797492	      0.09508510	      9.29868574	      0.25248373	     -7.49999987	     -3.32702269	     -1.46482704	     -2.01034255	     32.35130751	      1.39591973	     63.42055528	    118.37129328	    105.00576650	     45.12426005	     -2.79340121	     61.92677508	    114.48371517	    106.47614676
      6.08333330	     -8.09826139	      2.33356108	     -7.62639812	      0.86192184	      1.01408186	      0.13239833	     15.54244605	     -2.85275232	     -0.93181070	     16.99839973	      0.29667804	      8.40980940	    -11.35477896	     -7.49999987	      8.60100359	      4.22418552	     -0.90964584	      5.03843903	      0.08793735	      9.24203912	      0.57593642	     -7.49999987	     -4.30230910	     -1.48721262	     -2.03702866	     31.63478443	      0.61594468	     62.99287911	    117.76889636	    102.59667853	     43.53693973	     -2.92458094	     60.23849357	    111.02652808	    104.52312285
      6.10000000	     -7.65118448	      2.28693930	     -7.17473808	      0.86079964	      1.01733501	      0.13181072	     14.36485081	     -2.99616176	     -0.89634587	     16.34164127	      0.28521545	      8.78282776	    -11.65584107	     -7.49999987	      7.87917838	      4.21999462	     -0.19170946	      4.83853268	      0.08444833	      9.00058697	      0.39765601	     -7.49999987	     -5.01884935	     -1.38147181	     -1.89478773	     30.85685595	     -0.92342889	     62.59485003	    115.88944678	    102.79360900	     41.49506988	     -3.33240191	     59.15313346	    107.06746660	    104.98657411
      6.11666670	     -7.07754031	      2.25279351	     -6.81170469	      0.86049556	      1.01714610	      0.13184656	     13.16556849	     -3.16726506	     -0.87255611	     15.78302618	      0.27546577	      9.06647171	    -11.98009123	     -7.49999987	      7.02260146	      4.25017779	      0.52225173	      4.58798328	      0.08007541	      8.73764738	     -0.00343370	     -7.49999987	     -5.76385647	     -1.41359731	     -1.15563833	     29.30068322	     -2.82112925	     60.74205332	    114.79399271	    103.20076407	     39.20956077	     -3.66388393	     58.65345362	    102.64925657	    107.22605082
      6.13333330	     -6.57473692	      2.27060265	     -6.44744560	      0.85907716	      1.01507209	      0.13136210	     12.09732856	     -3.42987287	     -0.89913215	     15.24736481	      0.26611672	      9.39547972	    -12.20298078	     -7.49999987	      6.31040928	      4.29825112	      0.84929060	      4.41913686	      0.07712849	      8.64925038	      0.12339477	     -7.49999987	     -6.35578136	     -1.33052795	     -1.50542731	     27.95598297	     -4.04150225	     58.65390651	    112.88932908	    102.85912957	     36.70179636	     -4.69320728	     57.54161256	     99.29987052	    107.03896384
      6.15000000	     -6.13137236	      2.25820380	     -6.12686347	      0.85810665	      1.01737440	      0.13701071	     11.12054701	     -3.57372151	     -0.97099730	     14.75767921	      0.25757009	      9.63241358	    -12.54502569	     -7.49999987	      5.69387599	      4.28254612	      1.19295122	      4.24176377	      0.07403274	      8.55285807	      0.13878035	     -7.49999987	     -6.86927138	     -1.37827857	     -1.74320288	     26.56056725	     -5.67319881	     57.19852706	    111.03536044	    102.50912690	     34.74070614	     -6.19130338	     55.62634266	     94.60213636	    106.85049956
      6.16666670	     -5.82217220	      2.31065333	     -5.90337378	      0.85711725	      1.01507047	      0.13672851	     10.47899693	     -3.77169866	     -1.00711673	     14.43928195	      0.25201301	      9.79899844	    -12.77532171	     -7.49999987	      5.32761337	      4.33738431	      1.46606387	      4.18067094	      0.07296647	      8.46129068	     -0.02599109	     -7.49999987	     -7.20619582	     -1.42252293	     -1.75927651	     25.30423340	     -6.92670182	     54.89325921	    107.94760787	    100.77446522	     33.35429002	     -6.50293058	     51.67243283	     88.85654058	    105.20782407
      6.18333330	     -5.53491964	      2.38000420	     -5.69618202	      0.85702293	      1.01225400	      0.13737642	      9.80351882	     -3.95152980	     -1.05942962	     14.00327166	      0.24440320	      9.79974837	    -13.19786422	     -7.49999987	      4.92219221	      4.40629683	      1.73110579	      3.95969053	      0.06910964	      8.36337484	     -0.18043129	     -7.49999987	     -7.19963851	     -1.53976309	     -2.33265955	     23.19053382	     -8.12012381	     52.68174047	    105.12435061	     97.95104075	     31.79911055	     -6.69698881	     48.26096621	     82.40679360	    101.94585912
      6.20000000	     -5.19593635	      2.48490024	     -5.51526242	      0.85601886	      1.01272771	      0.13714531	      9.03797135	     -4.19345339	     -1.16449525	     13.34240562	      0.23286891	      9.99481576	    -13.23130679	     -7.49999987	      4.45138433	      4.49811943	      1.92653832	      3.74345000	      0.06533553	      8.29999989	     -0.12858125	     -7.49999987	     -7.27863728	     -1.56489496	     -2.72952534	     21.98373079	     -8.54345287	     50.34165911	     99.72402126	     96.55750509	     30.24819345	     -6.83848700	     45.94363024	     76.18358179	    100.40846166
